# This file uses centimeters as units for non-parametric coordinates.

v -5.042935 -0.789061 -1.366693
v -5.042935 0.789061 -1.366694
v -5.042935 1.578122 -0.000000
v -5.042935 0.925711 1.366693
v -5.042935 -0.657022 1.366693
v -5.042935 -1.578122 0.000000
v 12.000000 -1.198064 -2.075106
v 12.000000 1.198063 -2.075107
v 12.000000 2.396127 -0.000000
v 12.000000 1.198064 2.075107
v 12.000000 -1.198063 2.075107
v 12.000000 -2.396127 0.000000
v -7.490918 -0.966935 -1.631950
v -7.490918 1.261253 -1.835770
v -8.122989 0.047784 -0.396741
v -8.122989 2.132950 -0.269398
v -8.122989 -2.037382 -0.269398
v -11.741039 -1.186067 -3.153166
v -11.701696 1.748287 -2.930428
v -12.012758 2.034214 -2.494873
v -11.877117 -1.553057 -2.646499
v -6.736517 2.282019 0.644462
v -6.541712 1.756988 2.010223
v -7.078055 0.281244 0.644462
v -6.659225 0.260808 2.010223
v -6.974186 -1.224041 0.835945
v -8.567355 3.706534 1.526211
v -8.567791 3.473728 1.897815
v -8.799593 3.452108 1.526211
v -8.800029 3.219301 1.897815
v -9.031830 3.197682 1.526211
v -9.742544 -1.031399 -2.055402
v -9.742544 1.753385 -2.055402
v -9.742544 2.431974 -1.099709
v -9.742544 0.465838 -1.153125
v -9.742544 -2.110583 -0.921910
v -7.786061 2.968847 0.920189
v -7.762066 2.582166 1.884121
v -8.018432 1.875518 1.900275
v -8.279972 1.991209 1.262520
v -9.742544 0.779047 -2.358036
v -12.906301 0.574333 -2.789106
v -12.907037 0.825414 -2.788787
v -12.619092 0.904845 -3.340714
v -12.619092 0.653249 -3.340714
v -3.893177 -0.751774 -1.302111
v -3.893177 0.751774 -1.302111
v -3.893177 1.503548 -0.000000
v -3.893177 0.751774 1.302111
v -3.893177 -0.751774 1.302111
v -3.893177 -1.503548 0.000000
v 6.162447 -1.036562 -1.795377
v 6.162447 1.036561 -1.795377
v 6.162447 2.073123 -0.000000
v 6.162447 1.036562 1.795377
v 6.162447 -1.036561 1.795377
v 6.162447 -2.073123 0.000000
vt 0.140632 0.235432
vt 0.057730 0.235432
vt 0.051271 0.001992
vt 0.147091 0.001992
vt 0.129244 0.637550
vt 0.069118 0.637550
vt 0.130735 0.683528
vt 0.067627 0.683528
vt 0.048744 0.781421
vt 0.137848 0.781421
vt 0.162289 0.683528
vt 0.180655 0.806697
vt 0.068028 0.871462
vt 0.140426 0.871462
vt 0.183582 0.871462
vt 0.029064 0.871462
vt 0.146611 0.951381
vt 0.073058 0.986493
vt 0.161287 0.956822
vt 0.062997 0.986493
vt 0.029268 0.949807
vt 0.066173 0.998008
vt 0.017834 0.962246
vt 0.001928 0.871462
vt 0.575696 0.235432
vt 0.503900 0.235432
vt 0.503900 0.001992
vt 0.586882 0.001992
vt 0.555971 0.637550
vt 0.503900 0.637550
vt 0.432104 0.235432
vt 0.420918 0.001992
vt 0.558553 0.683528
vt 0.503900 0.683528
vt 0.451830 0.637550
vt 0.514673 0.806697
vt 0.577312 0.781421
vt 0.449247 0.683528
vt 0.478129 0.751253
vt 0.547877 0.871462
vt 0.586094 0.871462
vt 0.423513 0.743463
vt 0.428555 0.792264
vt 0.467102 0.793224
vt 0.428008 0.824484
vt 0.442868 0.824467
vt 0.442868 0.833754
vt 0.428008 0.833772
vt 0.442868 0.843041
vt 0.316618 0.235432
vt 0.233715 0.235432
vt 0.227257 0.001992
vt 0.323077 0.001992
vt 0.305230 0.637550
vt 0.245104 0.637550
vt 0.312185 0.683528
vt 0.248893 0.683528
vt 0.285596 0.748162
vt 0.345428 0.743463
vt 0.212059 0.683528
vt 0.215041 0.637550
vt 0.226218 0.760757
vt 0.350168 0.802516
vt 0.378426 0.792264
vt 0.193693 0.806697
vt 0.403905 0.833772
vt 0.414079 0.824484
vt 0.277078 0.806697
vt 0.286414 0.764911
vt 0.293795 0.871462
vt 0.190766 0.871462
vt 0.213061 0.956822
vt 0.298134 0.997979
vt 0.749254 0.235432
vt 0.677458 0.235432
vt 0.677458 0.001992
vt 0.760440 0.001992
vt 0.729528 0.637550
vt 0.677458 0.637550
vt 0.605662 0.235432
vt 0.594475 0.001992
vt 0.625387 0.637550
vt 0.677458 0.683528
vt 0.622804 0.683528
vt 0.661198 0.702067
vt 0.681459 0.687391
vt 0.675757 0.772464
vt 0.653698 0.775620
vt 0.752820 0.813908
vt 0.687398 0.687391
vt 0.735582 0.687391
vt 0.774878 0.802423
vt 0.820114 0.252611
vt 0.868297 0.252611
vt 0.802888 0.379157
vt 0.780817 0.367642
vt 0.924053 0.213041
vt 0.904302 0.252137
vt 0.874236 0.203891
vt 0.883523 0.193716
vt 0.892810 0.183542
vt 0.952366 0.320517
vt 0.966024 0.240507
vt 0.851417 0.057436
vt 0.863375 0.122201
vt 0.784750 0.122201
vt 0.768033 0.057436
vt 0.847469 0.212985
vt 0.799130 0.248747
vt 0.777369 0.015650
vt 0.857378 0.001992
vt 0.924519 0.061370
vt 0.869903 0.062187
vt 0.877561 0.001992
vt 0.920122 0.125941
vt 0.894619 0.130568
vt 0.920024 0.179678
vt 0.905164 0.178814
vn -0.047864 -0.000000 -0.998854
vn -0.047864 -0.000000 -0.998854
vn -0.047864 -0.000000 -0.998854
vn -0.047864 -0.000000 -0.998854
vn -0.047864 0.865033 -0.499427
vn -0.047864 0.865033 -0.499427
vn -0.047864 0.865033 -0.499427
vn -0.047864 0.865033 -0.499427
vn -0.047864 0.865033 0.499427
vn -0.047864 0.865033 0.499427
vn -0.047864 0.865033 0.499427
vn -0.047864 0.865033 0.499427
vn -0.047864 0.000000 0.998854
vn -0.047864 0.000000 0.998854
vn -0.047864 0.000000 0.998854
vn -0.047864 0.000000 0.998854
vn -0.047864 -0.865033 0.499427
vn -0.047864 -0.865033 0.499427
vn -0.047864 -0.865033 0.499427
vn -0.047864 -0.865033 0.499427
vn -0.047864 -0.865033 -0.499427
vn -0.047864 -0.865033 -0.499427
vn -0.047864 -0.865033 -0.499427
vn -0.047864 -0.865033 -0.499427
vn -0.680593 0.621239 0.388402
vn -0.680593 0.621239 0.388402
vn -0.680593 0.621239 0.388402
vn -0.680595 0.621235 0.388404
vn -0.680595 0.621235 0.388404
vn -0.680595 0.621235 0.388404
vn -0.680591 0.621241 0.388400
vn -0.680591 0.621241 0.388400
vn -0.680591 0.621241 0.388400
vn 0.145009 -0.052906 -0.988015
vn 0.145009 -0.052906 -0.988015
vn 0.145009 -0.052906 -0.988015
vn 0.145009 -0.052906 -0.988015
vn 0.220659 0.868364 -0.444133
vn 0.220659 0.868364 -0.444133
vn 0.220659 0.868364 -0.444133
vn 0.220659 0.868364 -0.444133
vn -0.486860 0.041685 0.872485
vn -0.486860 0.041685 0.872485
vn -0.486860 0.041685 0.872485
vn -0.486860 0.041685 0.872485
vn -0.539499 -0.051251 0.840425
vn -0.539499 -0.051251 0.840425
vn -0.539499 -0.051251 0.840425
vn -0.539499 -0.051251 0.840425
vn -0.772939 -0.411812 -0.482676
vn -0.772939 -0.411812 -0.482676
vn -0.772939 -0.411812 -0.482676
vn -0.772939 -0.411812 -0.482676
vn 0.156051 0.292991 -0.943294
vn 0.156051 0.292991 -0.943294
vn 0.156051 0.292991 -0.943294
vn 0.218101 -0.121432 -0.968342
vn 0.218101 -0.121432 -0.968342
vn 0.218101 -0.121432 -0.968342
vn 0.218101 -0.121432 -0.968342
vn 0.293759 0.845425 -0.446053
vn 0.293759 0.845425 -0.446053
vn 0.293759 0.845425 -0.446053
vn 0.293759 0.845425 -0.446053
vn 0.356687 0.179552 -0.916807
vn 0.356687 0.179552 -0.916807
vn 0.356687 0.179552 -0.916807
vn 0.356687 0.179552 -0.916807
vn 0.204021 0.825303 -0.526545
vn 0.204021 0.825303 -0.526545
vn 0.204021 0.825303 -0.526545
vn 0.204021 0.825303 -0.526545
vn 0.343126 -0.718473 -0.605029
vn 0.343126 -0.718473 -0.605029
vn 0.343126 -0.718473 -0.605029
vn 0.343126 -0.718473 -0.605029
vn 0.393740 -0.028671 -0.918775
vn 0.393740 -0.028671 -0.918775
vn 0.393740 -0.028671 -0.918775
vn 0.393740 -0.028671 -0.918775
vn -0.567254 0.666668 -0.483506
vn -0.567254 0.666668 -0.483506
vn -0.567254 0.666668 -0.483506
vn -0.567254 0.666668 -0.483506
vn -0.090724 0.975003 0.202825
vn -0.090724 0.975003 0.202825
vn -0.090724 0.975003 0.202825
vn -0.090724 0.975003 0.202825
vn 0.015060 -0.976336 -0.215735
vn 0.015060 -0.976336 -0.215735
vn 0.015060 -0.976336 -0.215735
vn 0.015060 -0.976336 -0.215735
vn 0.056082 -0.000000 -0.998426
vn 0.056082 -0.000000 -0.998426
vn 0.056082 -0.000000 -0.998426
vn 0.056082 -0.000000 -0.998426
vn 0.056082 0.864662 -0.499213
vn 0.056082 0.864662 -0.499213
vn 0.056082 0.864662 -0.499213
vn 0.056082 0.864662 -0.499213
vn 0.108081 0.879795 0.462902
vn 0.108081 0.879796 0.462902
vn 0.108081 0.879795 0.462902
vn 0.108081 0.879796 0.462902
vn 0.056082 0.000000 0.998426
vn 0.056082 0.000000 0.998426
vn 0.056082 0.000000 0.998426
vn 0.056082 0.000000 0.998426
vn 0.007481 -0.847279 0.531096
vn 0.007481 -0.847279 0.531096
vn 0.007481 -0.847279 0.531096
vn 0.007481 -0.847279 0.531096
vn 0.056082 -0.864662 -0.499213
vn 0.056082 -0.864662 -0.499213
vn 0.056082 -0.864662 -0.499213
vn 0.056082 -0.864662 -0.499213
vn -0.048995 -0.000000 -0.998799
vn -0.048995 -0.000000 -0.998799
vn -0.048995 -0.000000 -0.998799
vn -0.048995 -0.000000 -0.998799
vn -0.048995 0.864985 -0.499400
vn -0.048995 0.864985 -0.499400
vn -0.048995 0.864985 -0.499400
vn -0.048995 0.864985 -0.499400
vn -0.048995 0.864985 0.499399
vn -0.048995 0.864985 0.499399
vn -0.048995 0.864985 0.499399
vn -0.048995 0.864985 0.499399
vn -0.048995 0.000000 0.998799
vn -0.048995 0.000000 0.998799
vn -0.048995 0.000000 0.998799
vn -0.048995 0.000000 0.998799
vn -0.048995 -0.864985 0.499399
vn -0.048995 -0.864985 0.499399
vn -0.048995 -0.864985 0.499399
vn -0.048995 -0.864985 0.499399
vn -0.048995 -0.864985 -0.499399
vn -0.048995 -0.864985 -0.499399
vn -0.048995 -0.864985 -0.499399
vn -0.048995 -0.864985 -0.499399
vn 0.510592 0.802264 0.309302
vn 0.510592 0.802264 0.309302
vn 0.510592 0.802264 0.309302
vn 0.510592 0.802264 0.309302
vn 0.374949 -0.014311 0.926935
vn 0.374949 -0.014311 0.926935
vn 0.374949 -0.014311 0.926935
vn 0.374949 -0.014311 0.926935
vn 0.025143 -0.727461 0.685688
vn 0.025143 -0.727461 0.685688
vn 0.025143 -0.727461 0.685688
vn 0.025143 -0.727461 0.685688
vn 0.547129 0.795649 0.259987
vn 0.547129 0.795649 0.259987
vn 0.547129 0.795649 0.259987
vn 0.547129 0.795649 0.259987
vn -0.072666 0.019646 0.997163
vn -0.072666 0.019646 0.997163
vn -0.072666 0.019646 0.997163
vn -0.072666 0.019646 0.997163
vn -0.757429 -0.616386 0.215334
vn -0.757429 -0.616386 0.215334
vn -0.757429 -0.616386 0.215334
vn -0.757429 -0.616386 0.215334
vn -0.629091 0.028375 0.776814
vn -0.629091 0.028375 0.776814
vn -0.629091 0.028375 0.776814
vn -0.629091 0.028375 0.776814
vn -0.708929 0.042008 0.704028
vn -0.708929 0.042008 0.704028
vn -0.708929 0.042008 0.704028
vn -0.708929 0.042008 0.704028
vn 0.078316 -0.840089 0.536765
vn 0.078316 -0.840089 0.536765
vn 0.078316 -0.840089 0.536765
vn 0.196331 0.875900 -0.440742
vn 0.196331 0.875900 -0.440742
vn 0.196331 0.875900 -0.440742
vn 0.738966 0.616075 0.272730
vn 0.738966 0.616075 0.272730
vn 0.738966 0.616075 0.272730
vn 0.738966 0.616075 0.272730
vn -0.790567 -0.510074 0.338865
vn -0.790567 -0.510074 0.338864
vn -0.790567 -0.510074 0.338865
vn -0.790567 -0.510074 0.338865
vn -0.426449 0.067216 -0.902011
vn -0.426449 0.067216 -0.902011
vn -0.426449 0.067216 -0.902011
vn -0.426449 0.067216 -0.902011
vn -0.426449 0.067216 -0.902011
vn -0.371324 -0.002562 -0.928500
vn -0.371324 -0.002562 -0.928500
vn -0.371324 -0.002562 -0.928500
vn -0.371324 -0.002562 -0.928500
vn 0.147582 -0.832938 -0.533324
vn 0.147582 -0.832938 -0.533324
vn 0.147582 -0.832938 -0.533324
vn 0.147582 -0.832938 -0.533324
vn -0.391544 0.070568 0.917449
vn -0.391544 0.070568 0.917449
vn -0.391544 0.070568 0.917449
vn -0.391544 0.070568 0.917449
vn -0.446667 -0.039880 0.893811
vn -0.446667 -0.039880 0.893811
vn -0.446667 -0.039880 0.893811
vn -0.446667 -0.039880 0.893811
vn 0.197004 -0.766995 -0.610661
vn 0.197004 -0.766996 -0.610661
vn 0.197004 -0.766995 -0.610661
vn 0.197004 -0.766996 -0.610661
vn 0.017915 0.007697 0.999810
vn 0.017915 0.007697 0.999810
vn 0.017915 0.007697 0.999810
vn 0.017915 0.007697 0.999810
vn -0.955781 -0.028722 0.292674
vn -0.955781 -0.028722 0.292674
vn -0.955781 -0.028722 0.292674
f 52/1/1 53/2/2 8/3/3 7/4/4
f 53/25/5 54/26/6 9/27/7 8/28/8
f 54/26/9 55/31/10 10/32/11 9/27/12
f 55/50/13 56/51/14 11/52/15 10/53/16
f 56/74/17 57/75/18 12/76/19 11/77/20
f 57/75/21 52/80/22 7/81/23 12/76/24
f 28/45/25 27/46/26 29/47/27
f 30/48/28 28/45/29 29/47/30
f 31/49/31 30/48/32 29/47/33
f 14/9/34 2/8/35 1/7/36 13/10/37
f 16/36/38 3/34/39 2/33/40 14/37/41
f 35/106/42 34/105/43 20/108/44 43/109/45
f 21/72/46 36/71/47 35/70/48 42/73/49
f 18/85/50 21/86/51 42/87/52 45/88/53
f 33/16/54 14/9/55 41/13/56
f 41/13/57 14/9/58 13/10/59 32/14/60
f 34/40/61 16/36/62 14/37/63 33/41/64
f 41/13/65 44/20/66 19/21/67 33/16/68
f 20/23/69 34/24/70 33/16/71 19/21/72
f 32/14/73 36/15/74 21/19/75 18/17/76
f 18/17/77 45/18/78 41/13/79 32/14/80
f 44/20/81 43/22/82 20/23/83 19/21/84
f 42/89/85 35/90/86 41/91/87 45/92/88
f 41/93/89 35/94/90 43/95/91 44/96/92
f 1/7/93 2/8/94 47/6/95 46/5/96
f 2/33/97 3/34/98 48/30/99 47/29/100
f 3/34/101 4/38/102 49/35/103 48/30/104
f 4/56/105 5/57/106 50/55/107 49/54/108
f 5/57/109 6/60/110 51/61/111 50/55/112
f 6/83/113 1/84/114 46/82/115 51/79/116
f 46/5/117 47/6/118 53/2/119 52/1/120
f 47/29/121 48/30/122 54/26/123 53/25/124
f 48/30/125 49/35/126 55/31/127 54/26/128
f 49/54/129 50/55/130 56/51/131 55/50/132
f 50/78/133 51/79/134 57/75/135 56/74/136
f 51/79/137 46/82/138 52/80/139 57/75/140
f 4/38/141 3/34/142 22/39/143 23/42/144
f 25/58/145 5/57/146 4/56/147 23/59/148
f 26/62/149 6/60/150 5/57/151 25/58/152
f 38/43/153 23/42/154 22/39/155 37/44/156
f 39/63/157 25/58/158 23/59/159 38/64/160
f 24/113/161 25/112/162 39/115/163 40/116/164
f 16/104/165 15/107/166 24/110/167 22/111/168
f 15/68/169 17/65/170 26/62/171 24/69/172
f 17/65/173 6/60/174 26/62/175
f 16/36/176 22/39/177 3/34/178
f 28/45/179 38/43/180 37/44/181 27/46/182
f 40/116/183 39/115/184 30/117/185 31/118/186
f 37/97/187 40/98/188 31/99/189 29/100/190 27/101/191
f 24/102/192 40/98/193 37/97/194 22/103/195
f 1/7/196 6/11/197 17/12/198 13/10/199
f 15/68/200 35/70/201 36/71/202 17/65/203
f 16/104/204 34/105/205 35/106/206 15/107/207
f 13/10/208 17/12/209 36/15/210 32/14/211
f 30/66/212 39/63/213 38/64/214 28/67/215
f 25/112/216 24/113/217 26/114/218
