# This file uses centimeters as units for non-parametric coordinates.

mtllib Speech Bubble.mtl
g default
v 3.779639 -0.412978 -1.208253
v 3.511536 -0.412978 -2.703248
v 3.077737 -0.412978 -4.064579
v 2.497200 -0.412978 -5.232751
v 1.795299 -0.412978 -6.156709
v 1.002708 -0.412978 -6.796071
v 0.154069 -0.412978 -7.122893
v -0.713529 -0.412978 -7.122893
v -1.562168 -0.412978 -6.796071
v -2.354759 -0.412978 -6.156709
v -3.056660 -0.412978 -5.232751
v -3.637197 -0.412978 -4.064580
v -4.070995 -0.412978 -2.703248
v -4.339098 -0.412978 -1.208254
v -4.429787 -0.412978 0.355064
v -4.339098 -0.412978 1.918383
v -4.070995 -0.412978 3.413376
v -3.637196 -0.412978 4.774707
v -3.056660 -0.412978 5.942879
v -2.354759 -0.412978 6.866836
v -1.562168 -0.412978 7.506196
v -0.713530 -0.412978 7.833018
v 0.154068 -0.412978 7.833018
v 1.002707 -0.412978 7.506196
v 1.795297 -0.412978 6.866834
v 2.497198 -0.412978 5.942877
v 3.077734 -0.412978 4.774706
v 3.511533 -0.412978 3.413376
v 3.779635 -0.412978 1.918383
v 3.870323 -0.412978 0.355065
v 3.779639 0.412978 -1.208253
v 3.511536 0.412978 -2.703248
v 3.077737 0.412978 -4.064579
v 2.497200 0.412978 -5.232751
v 1.795299 0.412978 -6.156709
v 1.002708 0.412978 -6.796071
v 0.154069 0.412978 -7.122893
v -0.713529 0.412978 -7.122893
v -1.562168 0.412978 -6.796071
v -2.354759 0.412978 -6.156709
v -3.056660 0.412978 -5.232751
v -3.637197 0.412978 -4.064580
v -4.070996 0.412978 -2.703248
v -4.339099 0.412978 -1.208255
v -4.429787 0.412978 0.355064
v -4.339098 0.412978 1.918383
v -4.070997 0.412978 3.413375
v -3.637197 0.412978 4.774706
v -3.056660 0.412978 5.942879
v -2.354759 0.412978 6.866836
v -1.562168 0.412978 7.506196
v -0.713530 0.412978 7.833018
v 0.154068 0.412978 7.833018
v 1.002707 0.412978 7.506196
v 1.795297 0.412978 6.866834
v 2.497198 0.412978 5.942877
v 3.077734 0.412978 4.774706
v 3.511533 0.412978 3.413376
v 3.779635 0.412978 1.918383
v 3.870323 0.412978 0.355065
v -0.279731 -0.412978 0.355065
v -0.279731 0.412978 0.355065
v 4.736997 -0.435231 6.893957
v 4.736997 0.390724 6.893957
vt 0.897229 0.537949
vt 0.896714 0.571644
vt 0.874522 0.571305
vt 0.875037 0.537610
vt 0.896245 0.602327
vt 0.874053 0.601988
vt 0.897767 0.502714
vt 0.875575 0.502375
vt 0.895843 0.628657
vt 0.873651 0.628318
vt 0.898305 0.467478
vt 0.876113 0.467139
vt 0.895525 0.649482
vt 0.873333 0.649142
vt 0.898820 0.433783
vt 0.876628 0.433444
vt 0.878424 0.355005
vt 0.900616 0.355344
vt 0.953805 0.650372
vt 0.954299 0.618005
vt 0.976491 0.618344
vt 0.975997 0.650711
vt 0.954829 0.583350
vt 0.977021 0.583689
vt 0.955370 0.547920
vt 0.977562 0.548259
vt 0.955899 0.513265
vt 0.978091 0.513604
vt 0.956394 0.480899
vt 0.978586 0.481238
vt 0.956832 0.452236
vt 0.979024 0.452575
vt 0.957194 0.428529
vt 0.979386 0.428868
vt 0.953335 0.403925
vt 0.952867 0.434608
vt 0.930674 0.434269
vt 0.931143 0.403586
vt 0.952352 0.468304
vt 0.930160 0.467965
vt 0.951813 0.503539
vt 0.929621 0.503200
vt 0.951275 0.538775
vt 0.929083 0.538436
vt 0.950761 0.572470
vt 0.928569 0.572131
vt 0.950292 0.603153
vt 0.928100 0.602814
vt 0.949890 0.629482
vt 0.927698 0.629143
vt 0.949572 0.650307
vt 0.927380 0.649968
vt 0.926972 0.360293
vt 0.926478 0.392660
vt 0.904286 0.392321
vt 0.904780 0.359954
vt 0.925949 0.427315
vt 0.903756 0.426976
vt 0.925407 0.462744
vt 0.903215 0.462405
vt 0.924878 0.497400
vt 0.902686 0.497061
vt 0.924384 0.529766
vt 0.902191 0.529427
vt 0.923946 0.558429
vt 0.901753 0.558090
vt 0.923146 0.649904
vt 0.900954 0.649565
vt 0.358312 0.543586
vt 0.432282 0.529604
vt 0.509632 0.741299
vt 0.509632 0.524875
vt 0.290955 0.566208
vt 0.586983 0.529604
vt 0.233155 0.596483
vt 0.660953 0.543586
vt 0.187439 0.633087
vt 0.728310 0.566208
vt 0.155805 0.674420
vt 0.833167 0.479678
vt 0.786109 0.596483
vt 0.139634 0.718677
vt 0.831825 0.633087
vt 0.139634 0.763922
vt 0.863459 0.674420
vt 0.155805 0.808178
vt 0.879630 0.718677
vt 0.187439 0.849511
vt 0.879630 0.763922
vt 0.233155 0.886115
vt 0.863460 0.808178
vt 0.290955 0.916390
vt 0.831825 0.849511
vt 0.358312 0.939012
vt 0.786109 0.886115
vt 0.432282 0.952994
vt 0.728310 0.916390
vt 0.509632 0.957723
vt 0.660953 0.939012
vt 0.586983 0.952994
vt 0.583484 0.070776
vt 0.656830 0.084973
vt 0.506786 0.285738
vt 0.723619 0.107945
vt 0.506786 0.065974
vt 0.780931 0.138687
vt 0.430087 0.070776
vt 0.826262 0.175856
vt 0.356741 0.084973
vt 0.857630 0.217827
vt 0.289952 0.107945
vt 0.873664 0.262767
vt 0.185979 0.020079
vt 0.232641 0.138687
vt 0.873664 0.308710
vt 0.187310 0.175856
vt 0.857630 0.353649
vt 0.155942 0.217827
vt 0.826262 0.395621
vt 0.139908 0.262767
vt 0.780931 0.432790
vt 0.139908 0.308710
vt 0.723619 0.463532
vt 0.155942 0.353649
vt 0.656830 0.486503
vt 0.187310 0.395621
vt 0.583484 0.500700
vt 0.232640 0.432790
vt 0.506786 0.505503
vt 0.289952 0.463532
vt 0.430087 0.500700
vt 0.356741 0.486503
vn 0.993189 0.000000 -0.116516
vn 0.971109 0.000000 -0.238636
vn 0.971109 0.000000 -0.238636
vn 0.993189 0.000000 -0.116516
vn 0.928156 0.000000 -0.372192
vn 0.928156 0.000000 -0.372192
vn 0.852571 0.000000 -0.522611
vn 0.852571 0.000000 -0.522611
vn 0.722840 0.000000 -0.691016
vn 0.722840 0.000000 -0.691016
vn 0.507315 0.000000 -0.861761
vn 0.507315 0.000000 -0.861761
vn 0.187068 0.000000 -0.982347
vn 0.187068 0.000000 -0.982347
vn -0.187068 0.000000 -0.982347
vn -0.187068 0.000000 -0.982347
vn -0.507315 0.000000 -0.861761
vn -0.507315 0.000000 -0.861761
vn -0.722840 0.000000 -0.691016
vn -0.722840 0.000000 -0.691016
vn -0.852571 0.000000 -0.522611
vn -0.852571 0.000000 -0.522611
vn -0.928156 0.000000 -0.372192
vn -0.928156 0.000000 -0.372192
vn -0.971109 -0.000001 -0.238636
vn -0.971109 -0.000001 -0.238636
vn -0.993189 -0.000001 -0.116518
vn -0.993189 -0.000001 -0.116518
vn -1.000000 -0.000000 0.000000
vn -1.000000 -0.000000 0.000000
vn -0.993189 -0.000001 0.116517
vn -0.993189 -0.000001 0.116518
vn -0.971109 -0.000001 0.238636
vn -0.971109 -0.000001 0.238636
vn -0.928156 -0.000001 0.372192
vn -0.928156 -0.000001 0.372192
vn -0.852571 -0.000000 0.522611
vn -0.852571 -0.000000 0.522611
vn -0.722839 0.000000 0.691016
vn -0.722839 0.000000 0.691016
vn -0.507314 0.000000 0.861761
vn -0.507314 0.000000 0.861761
vn -0.187068 0.000000 0.982347
vn -0.187068 0.000000 0.982347
vn 0.187068 0.000000 0.982347
vn 0.187068 0.000000 0.982347
vn 0.507315 0.000000 0.861761
vn 0.507315 0.000000 0.861761
vn 0.722840 0.000000 0.691016
vn 0.722840 0.000000 0.691016
vn 0.796289 0.000000 0.604916
vn 0.796289 0.000000 0.604916
vn 0.984298 0.000000 0.176517
vn 0.993189 0.000000 0.116517
vn 0.993189 0.000000 0.116517
vn 0.984298 0.000000 0.176517
vn 1.000000 0.000000 0.000001
vn 1.000000 0.000000 0.000001
vn 0.000000 -1.000000 0.000000
vn 0.000000 -1.000000 0.000000
vn 0.000000 -1.000000 0.000000
vn 0.000000 -1.000000 0.000000
vn 0.000000 -1.000000 -0.000000
vn 0.000000 -1.000000 0.000000
vn 0.000000 -1.000000 0.000000
vn 0.000000 -1.000000 -0.000000
vn 0.000000 -1.000000 0.000000
vn 0.000000 -1.000000 0.000000
vn 0.000000 -1.000000 0.000000
vn 0.000000 -1.000000 0.000000
vn 0.000000 -1.000000 0.000000
vn 0.000000 -1.000000 0.000000
vn 0.000000 -1.000000 0.000000
vn 0.000000 -1.000000 0.000000
vn 0.000000 -1.000000 -0.000000
vn 0.000000 -1.000000 -0.000000
vn 0.000000 -1.000000 0.000000
vn 0.000000 -1.000000 0.000000
vn 0.000000 -1.000000 0.000000
vn 0.000000 -1.000000 0.000000
vn 0.000000 -1.000000 -0.000000
vn 0.000000 -1.000000 0.000000
vn 0.000000 -1.000000 0.000000
vn 0.000000 -1.000000 0.000000
vn -0.001640 -0.999998 -0.000815
vn -0.003181 -0.999994 -0.001188
vn -0.000908 -1.000000 -0.000289
vn 0.000000 -1.000000 0.000000
vn 0.000000 -1.000000 -0.000000
vn 0.000000 1.000000 0.000000
vn 0.000000 1.000000 0.000000
vn 0.000000 1.000000 0.000000
vn 0.000000 1.000000 0.000000
vn 0.000000 1.000000 0.000000
vn 0.000000 1.000000 0.000000
vn 0.000000 1.000000 -0.000000
vn 0.000000 1.000000 -0.000000
vn 0.000000 1.000000 -0.000000
vn 0.000000 1.000000 -0.000000
vn 0.000000 1.000000 0.000000
vn 0.000000 1.000000 0.000000
vn 0.000000 1.000000 -0.000000
vn 0.000000 1.000000 0.000000
vn 0.000000 1.000000 0.000000
vn 0.000000 1.000000 -0.000000
vn 0.000000 1.000000 -0.000000
vn 0.000000 1.000000 -0.000000
vn 0.000000 1.000000 0.000000
vn 0.000000 1.000000 0.000000
vn 0.000000 1.000000 0.000000
vn 0.000000 1.000000 0.000000
vn 0.000000 1.000000 0.000000
vn 0.000000 1.000000 -0.000000
vn 0.000000 1.000000 -0.000000
vn 0.000000 1.000000 -0.000000
vn 0.001640 0.999998 0.000815
vn 0.003181 0.999994 0.001189
vn 0.000908 1.000000 0.000289
vn 0.000000 1.000000 0.000000
vn 0.000000 1.000000 -0.000000
vn -0.008725 -0.999955 -0.003669
vn 0.008725 0.999955 0.003669
vn -0.390850 0.000000 0.920454
vn -0.390850 0.000000 0.920454
vn 0.928816 0.000000 0.370543
vn 0.927498 0.000000 0.373828
vn 0.943243 0.000000 -0.332103
vn 0.943243 0.000000 -0.332103
s 1
g pCylinder1
usemtl lambert3SG
f 1/1/1 2/2/2 32/3/3 31/4/4
f 2/2/2 3/5/5 33/6/6 32/3/3
f 3/5/5 4/9/7 34/10/8 33/6/6
f 4/9/7 5/13/9 35/14/10 34/10/8
f 5/19/9 6/20/11 36/21/12 35/22/10
f 6/20/11 7/23/13 37/24/14 36/21/12
f 7/23/13 8/25/15 38/26/16 37/24/14
f 8/25/15 9/27/17 39/28/18 38/26/16
f 9/27/17 10/29/19 40/30/20 39/28/18
f 10/29/19 11/31/21 41/32/22 40/30/20
f 11/31/21 12/33/23 42/34/24 41/32/22
f 12/35/23 13/36/25 43/37/26 42/38/24
f 13/36/25 14/39/27 44/40/28 43/37/26
f 14/39/27 15/41/29 45/42/30 44/40/28
f 15/41/29 16/43/31 46/44/32 45/42/30
f 16/43/31 17/45/33 47/46/34 46/44/32
f 17/45/33 18/47/35 48/48/36 47/46/34
f 18/47/35 19/49/37 49/50/38 48/48/36
f 19/49/37 20/51/39 50/52/40 49/50/38
f 20/53/39 21/54/41 51/55/42 50/56/40
f 21/54/41 22/57/43 52/58/44 51/55/42
f 22/57/43 23/59/45 53/60/46 52/58/44
f 23/59/45 24/61/47 54/62/48 53/60/46
f 24/61/47 25/63/49 55/64/50 54/62/48
f 25/63/49 26/65/51 56/66/52 55/64/50
f 28/15/53 29/11/54 59/12/55 58/16/56
f 29/11/54 30/7/57 60/8/58 59/12/55
f 30/7/57 1/1/1 31/4/4 60/8/58
s 3
f 2/69/59 1/70/60 61/71/61
f 3/73/62 2/69/59 61/71/61
f 4/75/63 3/73/62 61/71/61
f 5/77/64 4/75/63 61/71/61
f 6/79/65 5/77/64 61/71/61
f 7/82/66 6/79/65 61/71/61
f 8/84/67 7/82/66 61/71/61
f 9/86/68 8/84/67 61/71/61
f 10/88/69 9/86/68 61/71/61
f 11/90/70 10/88/69 61/71/61
f 12/92/71 11/90/70 61/71/61
f 13/94/72 12/92/71 61/71/61
f 14/96/73 13/94/72 61/71/61
f 15/98/74 14/96/73 61/71/61
f 16/100/75 15/98/74 61/71/61
f 17/99/76 16/100/75 61/71/61
f 18/97/77 17/99/76 61/71/61
f 19/95/78 18/97/77 61/71/61
f 20/93/79 19/95/78 61/71/61
f 21/91/80 20/93/79 61/71/61
f 22/89/81 21/91/80 61/71/61
f 23/87/82 22/89/81 61/71/61
f 24/85/83 23/87/82 61/71/61
f 25/83/84 24/85/83 61/71/61
f 26/81/85 25/83/84 61/71/61
f 27/78/86 26/81/85 61/71/61
f 28/76/87 27/78/86 61/71/61
f 29/74/88 28/76/87 61/71/61
f 30/72/89 29/74/88 61/71/61
f 1/70/60 30/72/89 61/71/61
s 4
f 31/101/90 32/102/91 62/103/92
f 32/102/91 33/104/93 62/103/92
f 33/104/93 34/106/94 62/103/92
f 34/106/94 35/108/95 62/103/92
f 35/108/95 36/110/96 62/103/92
f 36/110/96 37/112/97 62/103/92
f 37/112/97 38/115/98 62/103/92
f 38/115/98 39/117/99 62/103/92
f 39/117/99 40/119/100 62/103/92
f 40/119/100 41/121/101 62/103/92
f 41/121/101 42/123/102 62/103/92
f 42/123/102 43/125/103 62/103/92
f 43/125/103 44/127/104 62/103/92
f 44/127/104 45/129/105 62/103/92
f 45/129/105 46/131/106 62/103/92
f 46/131/106 47/132/107 62/103/92
f 47/132/107 48/130/108 62/103/92
f 48/130/108 49/128/109 62/103/92
f 49/128/109 50/126/110 62/103/92
f 50/126/110 51/124/111 62/103/92
f 51/124/111 52/122/112 62/103/92
f 52/122/112 53/120/113 62/103/92
f 53/120/113 54/118/114 62/103/92
f 54/118/114 55/116/115 62/103/92
f 55/116/115 56/114/116 62/103/92
f 56/114/116 57/111/117 62/103/92
f 57/111/117 58/109/118 62/103/92
f 58/109/118 59/107/119 62/103/92
f 59/107/119 60/105/120 62/103/92
f 60/105/120 31/101/90 62/103/92
s 3
f 26/81/85 27/78/86 63/80/121
s 4
f 57/111/117 56/114/116 64/113/122
s 5
f 56/66/123 26/65/124 63/67/125 64/68/126
s 3
f 27/78/86 28/76/87 63/80/121
s 5
f 28/15/127 58/16/128 64/17/126 63/18/125
s 4
f 58/109/118 57/111/117 64/113/122
