# This file uses centimeters as units for non-parametric coordinates.

v -10.508518 5.042935 -1.366693
v -8.930395 5.042935 -1.366694
v -8.141335 5.042935 0.000000
v -8.793746 5.042935 1.366693
v -10.376478 5.042935 1.366693
v -11.297579 5.042935 0.000000
v -10.686392 7.490918 -1.631950
v -8.458203 7.490918 -1.835770
v -9.494966 8.122989 -0.396741
v -7.586507 8.122989 -0.269398
v -11.756839 8.122989 -0.269398
v -10.905523 11.741039 -3.153166
v -7.971169 11.701696 -2.930428
v -7.685243 12.012758 -2.494873
v -11.272513 11.877117 -2.646499
v -7.437438 6.736517 0.644462
v -7.962469 6.541712 2.010223
v -9.438212 7.078055 0.644462
v -9.458649 6.659225 2.010223
v -10.943498 6.974186 0.835945
v -6.012923 8.567355 1.526211
v -6.245728 8.567791 1.897815
v -6.267349 8.799593 1.526211
v -6.500155 8.800029 1.897815
v -6.521775 9.031830 1.526211
v -10.750855 9.742544 -2.055402
v -7.966072 9.742544 -2.055402
v -7.287483 9.742544 -1.099709
v -9.253619 9.742544 -1.153125
v -11.830040 9.742544 -0.921910
v -6.750609 7.786061 0.920189
v -7.137291 7.762066 1.884121
v -7.843939 8.018432 1.900275
v -7.728248 8.279972 1.262520
v -8.940410 9.742544 -2.358036
v -9.145123 12.906301 -2.789106
v -8.894043 12.907037 -2.788787
v -8.814611 12.619092 -3.340714
v -9.066208 12.619092 -3.340714
v -10.471231 3.893177 -1.302111
v -8.967683 3.893177 -1.302111
v -8.215908 3.893177 0.000000
v -8.967683 3.893177 1.302111
v -10.471231 3.893177 1.302111
v -11.223005 3.893177 0.000000
v -10.653304 1.404148 1.617471
v -8.785608 1.404148 1.617471
v -7.851762 1.404148 0.000000
v -8.785610 1.404148 -1.617471
v -10.653304 1.404148 -1.617471
v -11.587152 1.404148 0.000000
v -11.276980 1.404148 2.697711
v -8.161932 1.404148 2.697711
v -11.448293 0.000000 2.994433
v -7.990619 -0.000000 2.994433
v -6.604407 1.404148 0.000000
v -6.261783 0.000000 0.000000
v -8.161933 1.404148 -2.697711
v -7.990621 0.000000 -2.994433
v -11.276981 1.404148 -2.697711
v -11.448295 0.000000 -2.994433
v -12.834506 1.404148 0.000000
v -13.177131 0.000000 0.000000
v -9.719457 0.000000 0.000000
vt 0.428008 0.824484
vt 0.442868 0.824467
vt 0.442868 0.833754
vt 0.428008 0.833772
vt 0.442868 0.843041
vt 0.048744 0.781421
vt 0.067627 0.683528
vt 0.130735 0.683528
vt 0.137848 0.781421
vt 0.514673 0.806697
vt 0.503900 0.683528
vt 0.558553 0.683528
vt 0.577312 0.781421
vt 0.784750 0.122201
vt 0.863375 0.122201
vt 0.847469 0.212985
vt 0.799130 0.248747
vt 0.213061 0.956822
vt 0.190766 0.871462
vt 0.293795 0.871462
vt 0.298134 0.997979
vt 0.661198 0.702067
vt 0.681459 0.687391
vt 0.675757 0.772464
vt 0.653698 0.775620
vt 0.029064 0.871462
vt 0.068028 0.871462
vt 0.140426 0.871462
vt 0.547877 0.871462
vt 0.586094 0.871462
vt 0.062997 0.986493
vt 0.029268 0.949807
vt 0.017834 0.962246
vt 0.001928 0.871462
vt 0.183582 0.871462
vt 0.161287 0.956822
vt 0.146611 0.951381
vt 0.073058 0.986493
vt 0.066173 0.998008
vt 0.752820 0.813908
vt 0.687398 0.687391
vt 0.735582 0.687391
vt 0.774878 0.802423
vt 0.820114 0.252611
vt 0.868297 0.252611
vt 0.802888 0.379157
vt 0.780817 0.367642
vt 0.069118 0.637550
vt 0.129244 0.637550
vt 0.503900 0.637550
vt 0.555971 0.637550
vt 0.449247 0.683528
vt 0.451830 0.637550
vt 0.312185 0.683528
vt 0.248893 0.683528
vt 0.245104 0.637550
vt 0.305230 0.637550
vt 0.212059 0.683528
vt 0.215041 0.637550
vt 0.677458 0.683528
vt 0.622804 0.683528
vt 0.625387 0.637550
vt 0.677458 0.637550
vt 0.729528 0.637550
vt 0.478129 0.751253
vt 0.423513 0.743463
vt 0.285596 0.748162
vt 0.345428 0.743463
vt 0.226218 0.760757
vt 0.428555 0.792264
vt 0.467102 0.793224
vt 0.350168 0.802516
vt 0.378426 0.792264
vt 0.869903 0.062187
vt 0.924519 0.061370
vt 0.920122 0.125941
vt 0.894619 0.130568
vt 0.851417 0.057436
vt 0.768033 0.057436
vt 0.777369 0.015650
vt 0.857378 0.001992
vt 0.277078 0.806697
vt 0.193693 0.806697
vt 0.286414 0.764911
vt 0.920024 0.179678
vt 0.905164 0.178814
vt 0.924053 0.213041
vt 0.904302 0.252137
vt 0.874236 0.203891
vt 0.883523 0.193716
vt 0.892810 0.183542
vt 0.952366 0.320517
vt 0.966024 0.240507
vt 0.162289 0.683528
vt 0.180655 0.806697
vt 0.403905 0.833772
vt 0.414079 0.824484
vt 0.877561 0.001992
vt 0.237823 0.380463
vt 0.742139 0.380463
vt 0.439219 0.380463
vt 0.312511 0.380463
vt 0.503900 0.380463
vt 0.061837 0.380463
vt 0.568582 0.380463
vt 0.136525 0.380463
vt 0.612776 0.380463
vt 0.677458 0.380463
vt 0.312511 0.380463
vt 0.237823 0.380463
vt 0.233715 0.235432
vt 0.316618 0.235432
vt 0.503900 0.380463
vt 0.439219 0.380463
vt 0.432104 0.235432
vt 0.503900 0.235432
vt 0.568582 0.380463
vt 0.575696 0.235432
vt 0.136525 0.380463
vt 0.061837 0.380463
vt 0.057730 0.235432
vt 0.140632 0.235432
vt 0.677458 0.380463
vt 0.612776 0.380463
vt 0.605662 0.235432
vt 0.677458 0.235432
vt 0.742139 0.380463
vt 0.749254 0.235432
vt 0.000000 0.000000
vt 1.000000 0.000000
vt 0.500000 1.000000
vt 0.000000 0.000000
vt 1.000000 0.000000
vt 0.500000 1.000000
vt 0.000000 0.000000
vt 1.000000 0.000000
vt 0.500000 1.000000
vt 0.000000 0.000000
vt 1.000000 0.000000
vt 0.500000 1.000000
vt 0.000000 0.000000
vt 1.000000 0.000000
vt 0.500000 1.000000
vt 0.000000 0.000000
vt 1.000000 0.000000
vt 0.500000 1.000000
vn 0.621239 0.680593 0.388402
vn 0.621239 0.680593 0.388402
vn 0.621239 0.680593 0.388402
vn 0.621235 0.680595 0.388404
vn 0.621235 0.680595 0.388404
vn 0.621235 0.680595 0.388404
vn 0.621241 0.680591 0.388400
vn 0.621241 0.680591 0.388400
vn 0.621241 0.680591 0.388400
vn -0.052906 -0.145009 -0.988015
vn -0.052906 -0.145009 -0.988015
vn -0.052906 -0.145009 -0.988015
vn -0.052906 -0.145009 -0.988015
vn 0.868364 -0.220659 -0.444133
vn 0.868364 -0.220659 -0.444133
vn 0.868364 -0.220659 -0.444133
vn 0.868364 -0.220659 -0.444133
vn 0.041685 0.486860 0.872485
vn 0.041685 0.486860 0.872485
vn 0.041685 0.486860 0.872485
vn 0.041685 0.486860 0.872485
vn -0.051251 0.539499 0.840425
vn -0.051251 0.539499 0.840425
vn -0.051251 0.539499 0.840425
vn -0.051251 0.539499 0.840425
vn -0.411812 0.772939 -0.482676
vn -0.411812 0.772939 -0.482676
vn -0.411812 0.772939 -0.482676
vn -0.411812 0.772939 -0.482676
vn 0.292991 -0.156051 -0.943294
vn 0.292991 -0.156051 -0.943294
vn 0.292991 -0.156051 -0.943294
vn -0.121432 -0.218101 -0.968342
vn -0.121432 -0.218101 -0.968342
vn -0.121432 -0.218101 -0.968342
vn -0.121432 -0.218101 -0.968342
vn 0.845425 -0.293759 -0.446053
vn 0.845425 -0.293759 -0.446053
vn 0.845425 -0.293759 -0.446053
vn 0.845425 -0.293759 -0.446053
vn 0.179552 -0.356687 -0.916807
vn 0.179552 -0.356687 -0.916807
vn 0.179552 -0.356687 -0.916807
vn 0.179552 -0.356687 -0.916807
vn 0.825303 -0.204021 -0.526545
vn 0.825303 -0.204021 -0.526545
vn 0.825303 -0.204021 -0.526545
vn 0.825303 -0.204021 -0.526545
vn -0.718473 -0.343126 -0.605029
vn -0.718473 -0.343126 -0.605029
vn -0.718473 -0.343126 -0.605029
vn -0.718473 -0.343126 -0.605029
vn -0.028671 -0.393740 -0.918775
vn -0.028671 -0.393740 -0.918775
vn -0.028671 -0.393740 -0.918775
vn -0.028671 -0.393740 -0.918775
vn 0.666668 0.567254 -0.483506
vn 0.666668 0.567254 -0.483506
vn 0.666668 0.567254 -0.483506
vn 0.666668 0.567254 -0.483506
vn 0.975003 0.090724 0.202825
vn 0.975003 0.090724 0.202825
vn 0.975003 0.090724 0.202825
vn 0.975003 0.090724 0.202825
vn -0.976336 -0.015060 -0.215735
vn -0.976336 -0.015060 -0.215735
vn -0.976336 -0.015060 -0.215735
vn -0.976336 -0.015060 -0.215735
vn 0.000000 -0.056082 -0.998426
vn 0.000000 -0.056082 -0.998426
vn 0.000000 -0.056082 -0.998426
vn 0.000000 -0.056082 -0.998426
vn 0.864662 -0.056082 -0.499213
vn 0.864662 -0.056082 -0.499213
vn 0.864662 -0.056082 -0.499213
vn 0.864662 -0.056082 -0.499213
vn 0.879796 -0.108081 0.462902
vn 0.879796 -0.108081 0.462902
vn 0.879796 -0.108081 0.462902
vn 0.879796 -0.108081 0.462902
vn 0.000000 -0.056082 0.998426
vn 0.000000 -0.056082 0.998426
vn 0.000000 -0.056082 0.998426
vn 0.000000 -0.056082 0.998426
vn -0.847279 -0.007481 0.531096
vn -0.847279 -0.007481 0.531096
vn -0.847279 -0.007481 0.531096
vn -0.847279 -0.007481 0.531096
vn -0.864662 -0.056082 -0.499213
vn -0.864662 -0.056082 -0.499213
vn -0.864662 -0.056082 -0.499213
vn -0.864662 -0.056082 -0.499213
vn -0.000000 0.048995 -0.998799
vn -0.000000 0.048995 -0.998799
vn -0.000000 0.125695 -0.992069
vn -0.000000 0.125695 -0.992069
vn 0.864985 0.048995 -0.499400
vn 0.864985 0.048995 -0.499400
vn 0.859157 0.125695 -0.496035
vn 0.859157 0.125695 -0.496035
vn 0.864986 0.048995 0.499399
vn 0.864986 0.048995 0.499399
vn 0.859157 0.125695 0.496034
vn 0.859157 0.125695 0.496034
vn -0.000000 0.048995 0.998799
vn -0.000000 0.048995 0.998799
vn 0.000000 0.125695 0.992069
vn 0.000000 0.125695 0.992069
vn -0.864986 0.048995 0.499399
vn -0.864986 0.048995 0.499399
vn -0.859157 0.125695 0.496035
vn -0.859157 0.125695 0.496035
vn -0.864986 0.048995 -0.499399
vn -0.864986 0.048995 -0.499399
vn -0.859157 0.125695 -0.496035
vn -0.859157 0.125695 -0.496035
vn 0.802264 -0.510592 0.309302
vn 0.802264 -0.510592 0.309302
vn 0.802264 -0.510592 0.309302
vn 0.802264 -0.510592 0.309302
vn -0.014311 -0.374949 0.926935
vn -0.014311 -0.374949 0.926935
vn -0.014311 -0.374949 0.926935
vn -0.014311 -0.374949 0.926935
vn -0.727461 -0.025143 0.685688
vn -0.727461 -0.025143 0.685688
vn -0.727461 -0.025143 0.685688
vn -0.727461 -0.025143 0.685688
vn 0.795649 -0.547129 0.259987
vn 0.795649 -0.547129 0.259987
vn 0.795649 -0.547129 0.259987
vn 0.795649 -0.547129 0.259987
vn 0.019646 0.072666 0.997163
vn 0.019646 0.072666 0.997163
vn 0.019646 0.072666 0.997163
vn 0.019646 0.072666 0.997163
vn -0.616386 0.757429 0.215334
vn -0.616386 0.757429 0.215334
vn -0.616386 0.757429 0.215334
vn -0.616386 0.757429 0.215334
vn 0.028375 0.629091 0.776814
vn 0.028375 0.629091 0.776814
vn 0.028375 0.629091 0.776814
vn 0.028375 0.629091 0.776814
vn 0.042008 0.708929 0.704028
vn 0.042008 0.708929 0.704028
vn 0.042008 0.708929 0.704028
vn 0.042008 0.708929 0.704028
vn -0.840089 -0.078316 0.536765
vn -0.840089 -0.078316 0.536765
vn -0.840089 -0.078316 0.536765
vn 0.875900 -0.196331 -0.440742
vn 0.875900 -0.196331 -0.440742
vn 0.875900 -0.196331 -0.440742
vn 0.616075 -0.738966 0.272730
vn 0.616075 -0.738966 0.272730
vn 0.616075 -0.738966 0.272730
vn 0.616075 -0.738966 0.272730
vn -0.510074 0.790567 0.338865
vn -0.510074 0.790567 0.338864
vn -0.510074 0.790567 0.338865
vn -0.510074 0.790567 0.338865
vn 0.067216 0.426449 -0.902011
vn 0.067216 0.426449 -0.902011
vn 0.067216 0.426449 -0.902011
vn 0.067216 0.426449 -0.902011
vn 0.067216 0.426449 -0.902011
vn -0.002562 0.371324 -0.928500
vn -0.002562 0.371324 -0.928500
vn -0.002562 0.371324 -0.928500
vn -0.002562 0.371324 -0.928500
vn -0.832938 -0.147582 -0.533324
vn -0.832938 -0.147582 -0.533324
vn -0.832938 -0.147582 -0.533324
vn -0.832938 -0.147582 -0.533324
vn 0.070568 0.391544 0.917449
vn 0.070568 0.391544 0.917449
vn 0.070568 0.391544 0.917449
vn 0.070568 0.391544 0.917449
vn -0.039880 0.446667 0.893811
vn -0.039880 0.446667 0.893811
vn -0.039880 0.446667 0.893811
vn -0.039880 0.446667 0.893811
vn -0.766995 -0.197004 -0.610661
vn -0.766996 -0.197004 -0.610661
vn -0.766995 -0.197004 -0.610661
vn -0.766996 -0.197004 -0.610661
vn 0.007697 -0.017915 0.999810
vn 0.007697 -0.017915 0.999810
vn 0.007697 -0.017915 0.999810
vn 0.007697 -0.017915 0.999810
vn -0.028722 0.955781 0.292674
vn -0.028722 0.955781 0.292674
vn -0.028722 0.955781 0.292674
vn 0.000000 0.206752 0.978393
vn 0.000000 0.206752 0.978393
vn -0.000000 0.048995 0.998799
vn -0.000000 0.048995 0.998799
vn 0.847313 0.206752 0.489197
vn 0.847314 0.206752 0.489197
vn 0.864986 0.048995 0.499399
vn 0.864986 0.048995 0.499399
vn 0.847313 0.206752 -0.489197
vn 0.847313 0.206752 -0.489197
vn 0.864985 0.048995 -0.499400
vn 0.864985 0.048995 -0.499400
vn 0.000000 0.206752 -0.978393
vn 0.000000 0.206752 -0.978393
vn -0.000000 0.048995 -0.998799
vn -0.000000 0.048995 -0.998799
vn -0.847314 0.206752 -0.489197
vn -0.847314 0.206752 -0.489197
vn -0.864986 0.048995 -0.499399
vn -0.864986 0.048995 -0.499399
vn -0.847313 0.206753 0.489197
vn -0.847313 0.206753 0.489197
vn -0.864986 0.048995 0.499399
vn -0.864986 0.048995 0.499399
vn 0.000000 1.000000 0.000000
vn 0.000000 1.000000 0.000000
vn 0.000000 1.000000 0.000000
vn 0.000000 1.000000 0.000000
vn 0.000000 1.000000 0.000000
vn 0.000000 1.000000 0.000000
vn 0.000000 1.000000 0.000000
vn 0.000000 1.000000 0.000000
vn 0.000000 1.000000 0.000000
vn 0.000000 1.000000 0.000000
vn 0.000000 1.000000 0.000000
vn 0.000000 1.000000 0.000000
vn -0.000000 1.000000 -0.000000
vn -0.000000 1.000000 -0.000000
vn -0.000000 1.000000 -0.000000
vn -0.000000 1.000000 -0.000000
vn -0.000000 1.000000 -0.000000
vn -0.000000 1.000000 -0.000000
vn -0.000000 1.000000 -0.000000
vn -0.000000 1.000000 -0.000000
vn 0.000000 1.000000 -0.000000
vn 0.000000 1.000000 -0.000000
vn 0.000000 1.000000 -0.000000
vn 0.000000 1.000000 -0.000000
vn -0.000000 -1.000000 -0.000000
vn -0.000000 -1.000000 -0.000000
vn -0.000000 -1.000000 -0.000000
vn 0.000000 -1.000000 -0.000000
vn 0.000000 -1.000000 -0.000000
vn 0.000000 -1.000000 -0.000000
vn 0.000000 -1.000000 0.000000
vn 0.000000 -1.000000 0.000000
vn 0.000000 -1.000000 0.000000
vn -0.000000 -1.000000 -0.000000
vn -0.000000 -1.000000 -0.000000
vn -0.000000 -1.000000 -0.000000
vn 0.000000 -1.000000 -0.000000
vn 0.000000 -1.000000 -0.000000
vn 0.000000 -1.000000 -0.000000
vn 0.000000 -1.000000 0.000000
vn 0.000000 -1.000000 0.000000
vn 0.000000 -1.000000 0.000000
f 22/1/1 21/2/2 23/3/3
f 24/4/4 22/1/5 23/3/6
f 25/5/7 24/4/8 23/3/9
f 8/6/10 2/7/11 1/8/12 7/9/13
f 10/10/14 3/11/15 2/12/16 8/13/17
f 29/14/18 28/15/19 14/16/20 37/17/21
f 15/18/22 30/19/23 29/20/24 36/21/25
f 12/22/26 15/23/27 36/24/28 39/25/29
f 27/26/30 8/6/31 35/27/32
f 35/27/33 8/6/34 7/9/35 26/28/36
f 28/29/37 10/10/38 8/13/39 27/30/40
f 35/27/41 38/31/42 13/32/43 27/26/44
f 14/33/45 28/34/46 27/26/47 13/32/48
f 26/28/49 30/35/50 15/36/51 12/37/52
f 12/37/53 39/38/54 35/27/55 26/28/56
f 38/31/57 37/39/58 14/33/59 13/32/60
f 36/40/61 29/41/62 35/42/63 39/43/64
f 35/44/65 29/45/66 37/46/67 38/47/68
f 1/8/69 2/7/70 41/48/71 40/49/72
f 2/12/73 3/11/74 42/50/75 41/51/76
f 3/11/77 4/52/78 43/53/79 42/50/80
f 4/54/81 5/55/82 44/56/83 43/57/84
f 5/55/85 6/58/86 45/59/87 44/56/88
f 6/60/89 1/61/90 40/62/91 45/63/92
f 40/49/93 41/48/94 49/104/95 50/106/96
f 41/51/97 42/50/98 48/103/99 49/105/100
f 42/50/101 43/53/102 47/101/103 48/103/104
f 43/57/105 44/56/106 46/99/107 47/102/108
f 44/64/109 45/63/110 51/108/111 46/100/112
f 45/63/113 40/62/114 50/107/115 51/108/116
f 4/52/117 3/11/118 16/65/119 17/66/120
f 19/67/121 5/55/122 4/54/123 17/68/124
f 20/69/125 6/58/126 5/55/127 19/67/128
f 32/70/129 17/66/130 16/65/131 31/71/132
f 33/72/133 19/67/134 17/68/135 32/73/136
f 18/74/137 19/75/138 33/76/139 34/77/140
f 10/78/141 9/79/142 18/80/143 16/81/144
f 9/82/145 11/83/146 20/69/147 18/84/148
f 11/83/149 6/58/150 20/69/151
f 10/10/152 16/65/153 3/11/154
f 22/1/155 32/70/156 31/71/157 21/2/158
f 34/77/159 33/76/160 24/85/161 25/86/162
f 31/87/163 34/88/164 25/89/165 23/90/166 21/91/167
f 18/92/168 34/88/169 31/87/170 16/93/171
f 1/8/172 6/94/173 11/95/174 7/9/175
f 9/82/176 29/20/177 30/19/178 11/83/179
f 10/78/180 28/15/181 29/14/182 9/79/183
f 7/9/184 11/95/185 30/35/186 26/28/187
f 24/96/188 33/72/189 32/73/190 22/97/191
f 19/75/192 18/74/193 20/98/194
f 53/109/195 52/110/196 54/111/197 55/112/198
f 56/113/199 53/114/200 55/115/201 57/116/202
f 58/117/203 56/113/204 57/116/205 59/118/206
f 60/119/207 58/120/208 59/121/209 61/122/210
f 62/123/211 60/124/212 61/125/213 63/126/214
f 52/127/215 62/123/216 63/126/217 54/128/218
f 47/102/219 46/99/220 52/110/221 53/109/222
f 48/103/223 47/101/224 53/114/225 56/113/226
f 49/105/227 48/103/228 56/113/229 58/117/230
f 50/106/231 49/104/232 58/120/233 60/119/234
f 51/108/235 50/107/236 60/124/237 62/123/238
f 46/100/239 51/108/240 62/123/241 52/127/242
f 55/129/243 54/130/244 64/131/245
f 57/132/246 55/133/247 64/134/248
f 59/135/249 57/136/250 64/137/251
f 61/138/252 59/139/253 64/140/254
f 63/141/255 61/142/256 64/143/257
f 54/144/258 63/145/259 64/146/260
